<svg xmlns="http://www.w3.org/2000/svg" xmlns:xlink="http://www.w3.org/1999/xlink" viewBox="0 0 1071.42 698.46"><defs><style>.cls-1,.cls-10,.cls-12,.cls-13{fill:none;}.cls-2{isolation:isolate;}.cls-3{fill:#d8e3f7;}.cls-4{clip-path:url(#clip-path);}.cls-5{fill:#cbcfeb;}.cls-6{fill:#bec0e9;}.cls-7{fill:#bdbfe6;mix-blend-mode:multiply;opacity:0.52;}.cls-8{clip-path:url(#clip-path-2);}.cls-9{fill:#bfc1ea;}.cls-10{stroke:#b6b8df;}.cls-10,.cls-12{stroke-linecap:round;stroke-width:11px;}.cls-10,.cls-12,.cls-13{stroke-miterlimit:10;}.cls-11{fill:#999ed6;}.cls-12{stroke:#a6acde;}.cls-13{stroke:#cbcfeb;stroke-width:6px;}.cls-14{fill:#f3446a;}.cls-15{fill:#bd3654;}.cls-16{clip-path:url(#clip-path-3);}.cls-17{fill:#f7f7f7;}.cls-18{fill:#e5e9f5;}.cls-19{fill:#4bc284;}.cls-20{fill:#ff597d;}</style><clipPath id="clip-path" transform="translate(-16.31 -304.46)"><rect class="cls-1" x="29.38" y="335.67" width="268.28" height="126.57"/></clipPath><clipPath id="clip-path-2" transform="translate(-16.31 -304.46)"><path class="cls-1" d="M778.5,665.86s42.65,27.52,44,77C939,546.17,1038.53,558.55,1042.2,675c1.61,51.12-12.84,119.73-86.22,184.85,30.27,24.76,7.91,77.71-62.37,93.55C720.26,951.68,718,946.52,718,946.52Z"/></clipPath><clipPath id="clip-path-3" transform="translate(-16.31 -304.46)"><rect class="cls-1" x="262.58" y="411.34" width="495.29" height="428.33"/></clipPath></defs><g class="cls-2"><g id="Layer_3" data-name="Layer 3"><ellipse class="cls-3" cx="332.28" cy="608.99" rx="243.69" ry="304.24" transform="translate(-297.89 -18.67) rotate(-33.62)"/><ellipse class="cls-3" cx="736.64" cy="650.27" rx="304.24" ry="206.39" transform="translate(-207.03 670.63) rotate(-60.74)"/><g class="cls-4"><path class="cls-5" d="M16.31,484.25C56.9,374.88,214.43,373.5,178.66,488.38,41.08,493.2,16.31,484.25,16.31,484.25Z" transform="translate(-16.31 -304.46)"/><path class="cls-5" d="M136,509c40.58-109.38,198.11-110.75,162.34,4.13C160.77,518,136,509,136,509Z" transform="translate(-16.31 -304.46)"/></g><path class="cls-6" d="M248.82,700.25C143.34,461.78-97.88,593.86,112.16,834.17,37,839.67-81.37,1005.68,534.07,966.24,898.2,955.24,248.82,700.25,248.82,700.25Z" transform="translate(-16.31 -304.46)"/><polygon class="cls-7" points="773.88 312.32 931.32 580.58 715.87 613.17 773.88 312.32"/><g class="cls-8"><path class="cls-9" d="M750.36,636s75.92-41.6,77.67,21.61c168-259.25,247.25-138.61,258.83-9.94,5.85,65-16.39,152.78-110,235.88,38.62,31.6,10.09,99.16-79.59,119.38-221.21-2.19-224.13-8.78-224.13-8.78Z" transform="translate(-16.31 -304.46)"/><path class="cls-5" d="M739.52,888.28c60.54-125.66,202.42-336.16,277.91-289.83C1098.15,648,922.9,1020.36,739.52,888.28Z" transform="translate(-16.31 -304.46)"/><line class="cls-10" x1="899.14" y1="446.64" x2="773.94" y2="611.74"/><line class="cls-10" x1="819.75" y1="470.23" x2="825.84" y2="543.29"/><line class="cls-10" x1="861.79" y1="554.56" x2="815.98" y2="556.28"/><polygon class="cls-7" points="773.88 312.32 968.41 643.78 701.66 657.19 773.88 312.32"/></g><ellipse class="cls-11" cx="507.98" cy="643.78" rx="398.61" ry="23.73"/><line class="cls-12" x1="98.2" y1="347.85" x2="211.41" y2="521.45"/><line class="cls-12" x1="215.08" y1="519.61" x2="165.55" y2="512.89"/><path class="cls-5" d="M817,518.65h202.24S967,434.73,918.15,498C895.45,478.75,806,466.37,817,518.65Z" transform="translate(-16.31 -304.46)"/><circle class="cls-13" cx="822.73" cy="144.94" r="9.4"/><circle class="cls-13" cx="368.03" cy="12.4" r="9.4"/><circle class="cls-13" cx="110.06" cy="227.07" r="9.4"/><path class="cls-3" d="M526.73,390.7c81.75-.93,164.25,0,164.25,0C691,282,506.1,279.26,526.73,390.7Z" transform="translate(-16.31 -304.46)"/></g><g id="Layer_2" data-name="Layer 2"><polygon class="cls-14" points="489.78 12.4 189.4 227.03 489.78 496.68 791.24 227.06 489.78 12.4"/><polygon class="cls-15" points="190.48 227.06 791.24 227.06 490.32 521.45 190.48 227.06"/><g class="cls-16"><polygon class="cls-17" points="740.55 510.44 229.76 510.44 229.76 88.53 642.5 84.86 758.67 195.25 740.55 510.44"/><polygon class="cls-18" points="675.73 165.3 767.24 254.54 775.49 165.3 675.73 165.3"/></g><path class="cls-5" d="M756.87,478.22H704.74A13.76,13.76,0,0,1,691,464.47V412.34Z" transform="translate(-16.31 -304.46)"/><polygon class="cls-19" points="420.08 183 377.43 231.15 492.54 325.62 724.59 68.35 675.98 27.99 486.57 238.95 420.08 183"/><polygon class="cls-14" points="189.4 227.03 189.4 633.77 439.8 431.77 189.4 227.03"/><polygon class="cls-14" points="791.24 227.06 790.17 633.77 539.77 431.77 791.24 227.06"/><polygon class="cls-20" points="790.17 633.77 189.4 633.77 489.78 370.54 790.17 633.77"/></g></g></svg>